<?xml version="1.0" standalone="no"?>
<!DOCTYPE svg PUBLIC "-//W3C//DTD SVG 20010904//EN"
 "http://www.w3.org/TR/2001/REC-SVG-20010904/DTD/svg10.dtd">
<svg version="1.0" xmlns="http://www.w3.org/2000/svg"
 width="512.000000pt" height="512.000000pt" viewBox="0 0 512.000000 512.000000"
 preserveAspectRatio="xMidYMid meet">
<metadata>
Created by potrace 1.14, written by Peter Selinger 2001-2017
</metadata>
<g transform="translate(0.000000,512.000000) scale(0.100000,-0.100000)"
fill="#000000" stroke="none">
<path d="M963 5113 c37 -2 97 -2 135 0 37 2 6 3 -68 3 -74 0 -105 -1 -67 -3z"/>
<path d="M1895 5080 c14 -22 25 -42 25 -46 0 -8 71 -94 122 -149 20 -22 52
-62 70 -90 42 -64 325 -346 369 -368 23 -11 37 -13 46 -6 16 14 174 6 243 -12
43 -11 55 -19 55 -34 0 -11 -8 -21 -17 -23 -10 -2 -18 1 -18 7 0 6 7 11 15 11
8 0 15 5 15 10 0 9 -66 16 -114 12 -11 -2 -16 3 -13 11 3 8 -1 14 -9 14 -8 0
-14 -5 -14 -11 0 -6 -4 -6 -8 2 -5 8 -16 10 -27 6 -18 -7 -18 -8 0 -14 17 -6
17 -7 -3 -12 -12 -4 -22 -2 -22 4 0 6 -9 0 -21 -13 l-20 -24 12 25 c12 23 11
24 -6 10 -16 -14 -17 -13 -11 8 6 18 4 21 -9 16 -9 -4 -14 -13 -11 -20 4 -11
-1 -13 -18 -8 -16 4 -27 1 -33 -9 -10 -17 -60 -50 -80 -53 -11 -2 -11 2 3 17
9 10 21 19 26 19 5 0 16 7 24 15 13 12 13 15 2 15 -8 0 -38 -23 -66 -50 -53
-51 -67 -91 -41 -117 8 -8 8 -16 0 -30 -6 -10 -11 -13 -11 -5 0 7 -4 10 -10 7
-14 -9 -12 -45 4 -76 7 -14 16 -37 20 -52 4 -19 13 -27 27 -27 12 0 35 -10 51
-22 30 -21 31 -21 44 -3 8 10 14 28 14 40 0 11 6 30 14 41 8 11 16 38 18 59 3
37 6 40 53 58 28 11 75 21 105 22 30 1 74 6 97 10 41 7 42 7 74 -39 32 -44 34
-46 42 -24 4 12 15 30 24 40 11 12 13 22 6 30 -6 7 -12 23 -15 34 -5 20 -3 21
25 10 44 -16 65 -69 60 -154 -2 -47 -9 -75 -24 -95 l-20 -28 41 -47 c23 -26
61 -60 84 -77 74 -53 286 -279 286 -305 0 -10 89 -25 130 -23 177 11 370 -4
370 -29 0 -4 24 -20 54 -34 63 -30 95 -28 156 9 33 19 49 23 70 17 16 -5 31
-5 35 -2 3 4 9 1 13 -6 5 -6 19 -13 32 -15 13 -2 26 -9 28 -15 2 -7 17 -12 33
-12 16 0 29 -4 29 -8 0 -5 38 -9 85 -9 47 0 85 4 85 9 0 4 9 8 19 8 11 0 22 6
24 13 3 7 6 6 6 -5 2 -32 99 -36 173 -7 27 11 34 41 15 66 -5 7 -6 21 -2 30 3
10 13 58 21 108 19 114 34 140 77 130 32 -8 117 -16 172 -17 17 0 51 6 78 13
l47 14 0 647 0 648 -453 0 -454 0 -11 -39 c-7 -21 -12 -45 -12 -53 0 -8 -23
-38 -50 -66 -28 -29 -50 -61 -50 -72 0 -25 -33 -42 -66 -34 -23 6 -25 10 -19
41 3 20 2 40 -5 47 -5 8 -11 31 -13 52 -2 37 -1 39 58 69 33 17 69 36 80 42
16 10 -229 12 -1118 13 l-1137 0 25 -40z m2446 -107 c-8 -15 -10 -15 -11 -2 0
17 10 32 18 25 2 -3 -1 -13 -7 -23z m25 -143 c33 -25 36 -48 9 -66 -23 -15
-65 -12 -65 6 0 4 -11 11 -25 14 -31 8 -31 14 0 48 26 29 40 28 81 -2z m-143
-162 c-10 -18 -20 -6 -15 19 5 24 6 25 12 8 4 -11 6 -23 3 -27z m62 -28 c-9
-27 -52 -70 -71 -70 -16 0 -63 -48 -64 -65 0 -5 -13 -20 -28 -32 -15 -12 -38
-31 -51 -42 -36 -31 -61 -28 -61 9 0 20 5 30 15 30 8 0 15 7 15 15 0 29 42 65
76 65 25 0 38 7 54 30 12 17 18 30 13 30 -16 0 72 48 90 49 14 1 17 -4 12 -19z
m-604 -328 c11 -20 10 -26 -13 -47 -34 -31 -45 -79 -24 -101 20 -20 20 -31 0
-42 -28 -15 -62 -2 -76 30 -17 38 -66 59 -146 62 -77 3 -101 21 -86 63 12 34
57 42 104 18 36 -19 74 -13 126 17 18 11 38 17 43 14 5 -4 12 -2 16 3 10 17
44 7 56 -17z m1313 8 c20 -7 26 -16 26 -40 0 -19 -5 -30 -14 -30 -8 0 -16 -5
-18 -11 -6 -17 -39 2 -49 28 -11 30 -4 43 24 44 21 0 21 1 2 9 -28 12 -2 12
29 0z m-1125 -46 c29 -37 26 -70 -8 -105 -50 -50 -75 -36 -86 47 -7 46 -5 53
16 68 33 23 54 20 78 -10z m-1459 -64 c0 -5 -5 -10 -11 -10 -5 0 -7 5 -4 10 3
6 8 10 11 10 2 0 4 -4 4 -10z m2064 -73 c12 -44 6 -94 -12 -110 -16 -15 -20
-15 -40 -1 -17 12 -22 25 -22 63 0 52 8 66 44 69 17 1 25 -5 30 -21z m-1185
-19 c11 -30 3 -48 -26 -59 -31 -12 -73 14 -68 42 6 32 15 39 51 39 27 0 37 -5
43 -22z m198 -52 c33 -69 -10 -117 -68 -76 -39 28 -38 77 1 97 38 19 49 16 67
-21z"/>
<path d="M2850 4113 c-8 -2 -21 -7 -29 -9 -8 -2 -11 -7 -8 -10 8 -9 77 7 71
17 -6 10 -11 10 -34 2z"/>
<path d="M2623 4085 c-18 -8 -33 -15 -33 -17 0 -2 29 1 64 6 36 6 63 14 60 18
-8 12 -55 9 -91 -7z"/>
<path d="M2805 4060 c-3 -5 -2 -10 4 -10 5 0 13 5 16 10 3 6 2 10 -4 10 -5 0
-13 -4 -16 -10z"/>
<path d="M2846 4056 c3 -8 13 -12 25 -9 23 6 15 23 -11 23 -12 0 -17 -5 -14
-14z"/>
<path d="M2652 4048 c5 -15 58 -21 58 -7 0 6 5 7 12 3 7 -4 8 -3 4 4 -10 17
-79 16 -74 0z"/>
<path d="M2610 4040 c-13 -8 -13 -10 2 -10 9 0 20 5 23 10 8 13 -5 13 -25 0z"/>
<path d="M2749 3892 c7 -14 19 -17 51 -14 29 3 38 7 29 13 -8 5 -22 6 -31 3
-10 -3 -18 -1 -18 5 0 6 -9 11 -20 11 -17 0 -19 -3 -11 -18z"/>
<path d="M2870 3880 c0 -5 5 -10 10 -10 6 0 10 5 10 10 0 6 -4 10 -10 10 -5 0
-10 -4 -10 -10z"/>
<path d="M2673 3863 c-10 -3 -10 -8 1 -19 18 -18 32 -18 17 -1 -6 8 -8 17 -4
20 7 8 4 8 -14 0z"/>
<path d="M2830 3844 c0 -14 3 -14 15 -4 8 7 15 14 15 16 0 2 -7 4 -15 4 -8 0
-15 -7 -15 -16z"/>
<path d="M2506 3814 c17 -73 64 -117 163 -154 66 -26 97 -25 151 3 39 19 47
30 72 92 37 93 34 106 -6 25 -26 -53 -36 -64 -54 -62 -11 2 -31 -2 -42 -8 -24
-13 -120 4 -120 21 0 5 -7 9 -15 9 -8 0 -24 9 -35 20 -11 11 -27 20 -37 20
-14 0 -14 3 3 22 13 15 14 19 3 10 -14 -10 -23 -9 -53 9 l-37 22 7 -29z"/>
<path d="M2764 3768 c-3 -4 8 -8 25 -8 16 0 33 5 36 10 4 7 -6 10 -25 8 -17
-1 -34 -6 -36 -10z"/>
<path d="M2880 3699 c0 -8 9 -66 19 -129 42 -252 35 -401 -26 -512 -33 -60
-97 -129 -142 -152 -29 -15 -33 -15 -70 4 -80 41 -105 103 -156 390 -14 79
-28 199 -31 267 -6 105 -9 121 -21 111 -8 -6 -20 -25 -28 -42 -9 -21 -14 -25
-14 -13 -1 15 -10 10 -49 -22 -27 -23 -53 -41 -58 -41 -14 0 -183 -67 -216
-86 -16 -8 -28 -12 -28 -9 0 3 -9 1 -19 -5 -13 -7 -23 -29 -31 -67 -6 -32 -22
-89 -35 -128 -12 -38 -28 -99 -34 -135 -6 -36 -18 -108 -26 -160 -9 -52 -20
-114 -26 -137 -5 -23 -9 -58 -9 -79 0 -20 -4 -53 -9 -73 -31 -119 -50 -308
-31 -296 9 6 9 2 1 -13 -6 -11 -11 -38 -11 -59 -1 -21 -7 -74 -16 -118 -9 -52
-16 -176 -20 -354 l-5 -273 30 25 c42 35 150 54 192 33 l30 -15 -2 133 c-1 73
1 139 5 145 4 6 11 37 16 69 18 124 43 263 65 377 14 66 26 134 29 150 2 17 2
-15 -1 -70 -3 -55 -9 -105 -14 -111 -5 -6 -6 -39 -3 -75 3 -35 1 -118 -5 -184
-31 -345 -34 -405 -21 -430 13 -25 12 -59 -10 -200 -11 -70 -4 -271 10 -310 4
-11 4 -47 -1 -80 -6 -45 -5 -73 7 -115 10 -35 14 -74 11 -107 -5 -46 -3 -55
16 -70 20 -16 22 -29 25 -128 3 -114 33 -315 56 -375 8 -19 24 -73 36 -120 12
-47 24 -91 26 -97 5 -17 259 -18 270 -1 5 8 9 237 5 305 -1 6 -13 25 -27 43
-24 28 -26 34 -15 73 12 46 10 185 -4 206 -5 9 -2 17 8 23 13 7 15 18 10 53
-5 40 -3 45 18 53 22 9 24 14 26 106 1 92 3 98 32 131 27 32 30 39 24 85 -4
38 -1 61 17 102 17 39 21 65 18 105 -3 29 -2 53 2 53 8 0 20 -252 20 -434 0
-72 5 -162 10 -199 6 -38 12 -121 15 -185 3 -65 10 -155 16 -202 10 -78 6
-234 -7 -302 l-6 -28 190 0 190 0 13 73 c11 62 13 160 8 440 -1 81 22 333 41
437 11 63 31 192 45 285 13 94 32 222 41 285 9 65 26 137 39 165 13 28 28 69
34 93 7 23 16 40 21 37 6 -3 5 -16 0 -31 -13 -34 -13 -34 10 -34 13 0 25 12
34 35 8 19 28 54 44 77 35 51 53 104 50 144 -1 16 4 45 11 65 8 26 9 44 1 64
-9 23 -7 31 8 45 14 14 19 35 21 99 1 45 8 100 16 122 19 52 19 110 1 134 -11
16 -11 23 -1 40 16 26 4 195 -17 245 -9 19 -18 72 -21 118 -7 91 -66 347 -97
420 -11 26 -28 74 -37 106 -21 67 -13 63 -213 112 -106 26 -192 66 -242 112
-19 18 -28 21 -28 11z m255 -449 c10 -11 13 -20 7 -20 -15 0 -25 -55 -18 -96
5 -25 12 -34 26 -34 23 0 27 -28 6 -36 -27 -11 -28 -195 -1 -222 19 -20 50 72
62 186 6 54 16 65 31 35 9 -18 5 -43 -7 -53 -4 -3 -15 -39 -24 -81 -12 -52
-27 -87 -48 -112 -55 -67 -79 -37 -59 72 6 35 8 75 5 90 -3 15 -7 68 -9 118
-2 62 -8 98 -19 113 -12 18 -13 26 -4 41 15 24 29 24 52 -1z m116 -741 c-9
-23 -10 -22 -10 11 -1 23 2 31 9 24 7 -7 7 -19 1 -35z m-541 -419 c18 -12 2
-12 -25 0 -13 6 -15 9 -5 9 8 0 22 -4 30 -9z m83 -137 c-7 -2 -21 -2 -30 0
-10 3 -4 5 12 5 17 0 24 -2 18 -5z m-603 -1287 c0 -3 -4 -8 -10 -11 -5 -3 -10
-1 -10 4 0 6 5 11 10 11 6 0 10 -2 10 -4z"/>
<path d="M3120 2835 c0 -44 2 -48 15 -34 14 14 14 19 1 50 l-15 34 -1 -50z"/>
<path d="M2546 3580 c-17 -42 -14 -74 10 -120 29 -54 28 -54 72 -26 22 14 43
34 47 46 8 26 31 26 45 0 6 -11 29 -29 51 -40 l40 -21 15 36 c8 20 17 49 20
64 7 32 -19 101 -37 101 -7 0 -42 -14 -78 -32 -44 -21 -66 -28 -69 -20 -4 13
-41 35 -78 46 -18 6 -24 0 -38 -34z"/>
<path d="M4836 3541 c2 -3 -3 -15 -11 -27 -14 -22 -13 -25 8 -39 13 -8 44 -15
73 -14 50 0 87 -5 104 -16 6 -3 10 -2 10 4 0 5 18 0 40 -11 22 -12 40 -28 40
-35 0 -7 5 -13 10 -13 6 0 10 33 10 80 l0 80 -35 -17 c-19 -9 -35 -23 -35 -30
0 -8 -4 -11 -10 -8 -5 3 -10 1 -10 -5 0 -7 -10 -5 -28 4 -20 10 -33 11 -46 4
-11 -6 -16 -6 -13 -1 3 5 -1 20 -9 32 -13 18 -24 21 -59 19 -24 -2 -41 -5 -39
-7z"/>
<path d="M976 3404 c-13 -33 -5 -64 24 -92 18 -18 30 -41 30 -56 0 -14 10 -36
22 -48 l21 -21 21 24 c12 13 27 53 35 88 14 63 14 65 -8 82 -44 36 -135 50
-145 23z"/>
<path d="M5102 3352 c5 -19 2 -22 -27 -22 -18 0 -37 -6 -43 -13 -8 -10 -3 -12
26 -11 20 0 43 2 50 3 15 1 16 47 0 57 -8 5 -9 0 -6 -14z"/>
<path d="M4203 3318 c-28 -36 -23 -45 29 -52 61 -8 78 2 58 39 -10 19 -21 25
-45 25 -18 0 -37 -6 -42 -12z"/>
<path d="M17 3229 c-13 -8 -17 -23 -16 -67 1 -51 2 -54 10 -26 5 17 21 43 36
58 22 23 25 29 13 37 -18 11 -21 11 -43 -2z"/>
<path d="M5111 3124 c0 -11 3 -14 6 -6 3 7 2 16 -1 19 -3 4 -6 -2 -5 -13z"/>
<path d="M612 3037 c50 -47 108 -58 122 -21 10 27 -3 34 -70 34 -53 0 -63 -2
-52 -13z"/>
<path d="M2745 3040 c3 -5 8 -10 11 -10 2 0 4 5 4 10 0 6 -5 10 -11 10 -5 0
-7 -4 -4 -10z"/>
<path d="M235 2885 c-16 -8 -37 -19 -45 -24 -8 -5 -27 -12 -42 -15 -14 -3 -40
-17 -56 -31 -32 -27 -61 -32 -80 -13 -9 9 -12 -12 -12 -94 l0 -106 116 -1 c64
-1 134 4 155 9 34 9 44 7 89 -16 27 -14 50 -32 50 -39 0 -18 55 -24 76 -7 14
10 36 12 86 7 51 -5 74 -2 97 10 17 8 31 18 31 21 0 17 -22 42 -34 38 -8 -3
-17 -1 -20 5 -5 7 -24 4 -58 -9 -59 -22 -101 -17 -122 15 -14 21 -13 24 33 53
43 28 51 30 85 21 59 -16 68 -8 51 43 -8 24 -17 56 -20 71 -8 41 -31 44 -64 8
-33 -35 -34 -35 -63 -20 -20 11 -20 11 4 36 23 25 23 25 1 19 -12 -4 -36 -20
-54 -37 -32 -30 -37 -30 -97 -8 -13 5 -30 25 -38 44 -16 39 -25 41 -69 20z
m43 -82 c5 -33 -46 -59 -105 -54 -23 2 2 43 38 61 43 23 63 21 67 -7z"/>
<path d="M835 2754 c-18 -28 -13 -78 11 -102 8 -7 14 -21 14 -30 0 -38 21 8
24 54 7 98 -14 131 -49 78z"/>
<path d="M1165 2763 c-21 -50 -23 -86 -8 -118 l16 -33 23 21 c20 17 23 27 18
56 -6 34 -30 91 -38 91 -2 0 -7 -8 -11 -17z"/>
<path d="M1733 2663 c-7 -2 -13 -11 -13 -20 0 -21 44 -13 48 10 3 17 -10 21
-35 10z"/>
<path d="M983 2607 c-13 -5 -23 -16 -23 -23 0 -7 -7 -20 -16 -29 -15 -14 -19
-14 -51 5 -29 17 -38 18 -52 8 -9 -7 -17 -13 -19 -14 -1 -1 0 -9 4 -18 5 -12
17 -16 48 -15 22 1 55 -6 71 -15 57 -31 86 -14 91 54 3 47 -17 64 -53 47z"/>
<path d="M1110 2595 c-21 -23 -21 -24 -3 -45 61 -71 77 -82 109 -77 17 3 36 1
42 -5 8 -8 20 -7 42 2 l31 13 -31 18 c-17 11 -33 25 -36 33 -7 17 -68 61 -105
75 -23 8 -30 6 -49 -14z"/>
<path d="M1582 2570 c-32 -26 -81 -45 -109 -41 -27 4 -71 -29 -76 -56 -7 -36
3 -46 35 -34 29 11 66 4 86 -16 18 -17 51 -17 58 2 3 8 14 17 24 20 13 4 18
17 18 50 1 25 6 54 12 64 13 25 13 28 -3 34 -7 2 -27 -8 -45 -23z"/>
<path d="M5055 2480 c-3 -6 1 -7 9 -4 18 7 21 14 7 14 -6 0 -13 -4 -16 -10z"/>
<path d="M1692 2432 c-17 -11 -5 -40 20 -48 27 -8 33 1 20 31 -12 27 -19 30
-40 17z"/>
<path d="M4531 2386 c-9 -11 -9 -19 1 -35 17 -27 37 -27 47 2 15 38 -23 64
-48 33z"/>
<path d="M4870 2380 c-8 -4 -26 -7 -40 -5 -31 3 -49 -26 -50 -77 0 -20 -4 -40
-10 -43 -31 -19 19 -82 54 -69 19 7 21 31 4 37 -10 3 -10 11 2 32 21 39 37 41
45 6 4 -20 1 -38 -9 -52 -9 -14 -12 -29 -7 -43 5 -11 6 -27 4 -34 -8 -23 41
-63 82 -66 20 -2 16 -55 -8 -93 -29 -46 -55 -70 -81 -74 -19 -4 -19 -5 -2 -22
10 -9 22 -14 27 -11 6 3 34 9 64 13 40 6 52 4 48 -5 -6 -17 4 -21 70 -28 l57
-6 0 147 0 148 -45 18 c-26 11 -42 23 -38 30 6 10 -57 4 -91 -9 -18 -7 -33 40
-19 59 6 6 13 22 16 35 5 22 -3 27 -43 24 -9 -1 -21 8 -28 19 -10 16 -9 24 4
44 19 29 16 38 -6 25z"/>
<path d="M4247 2373 c-4 -3 -7 -13 -7 -21 0 -12 3 -12 15 -2 8 7 15 16 15 21
0 11 -14 12 -23 2z"/>
<path d="M4037 2266 c-8 -21 4 -60 22 -71 24 -15 50 -14 44 1 -3 8 -9 14 -14
14 -5 0 -9 11 -9 25 0 28 -35 53 -43 31z"/>
<path d="M4627 2228 c3 -18 10 -38 15 -45 18 -22 -13 -59 -45 -54 -5 1 -20 -7
-35 -17 -15 -11 -35 -18 -44 -17 -10 2 -20 -1 -24 -6 -3 -5 -23 -9 -45 -9 -48
0 -49 -20 -1 -35 22 -8 29 -14 23 -24 -5 -8 -13 -11 -17 -8 -5 3 -9 -9 -9 -26
0 -27 5 -33 32 -40 26 -8 38 -6 60 9 28 18 32 20 66 22 18 2 18 4 -2 35 -37
60 16 78 85 29 57 -42 68 -43 98 -15 33 31 30 43 -17 66 -35 16 -37 20 -37 62
0 26 -5 45 -11 45 -6 0 -24 14 -39 30 -39 41 -61 40 -53 -2z"/>
<path d="M4383 2215 c-22 -16 -7 -54 23 -60 13 -3 35 -7 48 -10 28 -6 71 27
80 61 6 20 3 21 -65 20 -39 0 -78 -5 -86 -11z"/>
<path d="M3999 2103 c-16 -4 -32 -59 -22 -75 6 -12 61 -10 68 2 3 6 15 10 26
10 12 0 19 7 19 20 0 11 -2 20 -4 20 -2 0 -19 6 -37 13 -19 8 -41 12 -50 10z"/>
<path d="M4375 2089 c-10 -15 3 -25 16 -12 7 7 7 13 1 17 -6 3 -14 1 -17 -5z"/>
<path d="M4227 2049 c-10 -6 -30 -8 -44 -4 -38 9 -85 -13 -81 -39 2 -17 9 -21
38 -18 19 1 60 4 90 6 30 2 56 9 58 15 2 6 -1 11 -6 11 -6 0 -14 9 -17 20 -7
23 -12 24 -38 9z"/>
<path d="M4342 2005 c-19 -22 -11 -49 15 -53 23 -3 63 13 63 26 -1 31 -58 50
-78 27z"/>
<path d="M4622 1951 c3 -12 14 -15 46 -13 30 2 42 -1 42 -11 0 -34 78 -65 95
-38 7 12 -22 41 -40 41 -8 0 -16 8 -20 19 -4 15 -16 18 -66 18 -50 0 -59 -3
-57 -16z"/>
<path d="M1984 1486 c-3 -8 -4 -27 -2 -43 3 -23 5 -20 9 15 5 43 2 53 -7 28z"/>
<path d="M1881 1334 c-1 -11 8 -29 19 -39 11 -10 17 -22 14 -26 -7 -13 38 -11
56 2 12 8 11 9 -6 5 -20 -6 -63 30 -77 65 -3 9 -6 7 -6 -7z"/>
</g>
</svg>
