<svg xmlns="http://www.w3.org/2000/svg" id="Layer_1" data-name="Layer 1" viewBox="0 0 477.47 112.98"><defs><style>.cls-1{fill:#fff;}</style></defs><title>DK White</title><path class="cls-1" d="M399.27,439a25.81,25.81,0,0,1,12.67,3,21.06,21.06,0,0,1,8.47,8.47,27.35,27.35,0,0,1,0,24.79,21.06,21.06,0,0,1-8.47,8.47,25.81,25.81,0,0,1-12.67,3H382.68V439ZM409.35,474q3.58-4.2,3.58-11.17t-3.58-11.16q-3.59-4.2-10.08-4.2h-6.35v30.73h6.35Q405.77,478.23,409.35,474Z" transform="translate(-259.41 -423.51)"></path><path class="cls-1" d="M456.84,439v47.81H446.59V439Z" transform="translate(-259.41 -423.51)"></path><path class="cls-1" d="M491.08,441.56a25.26,25.26,0,0,1,12.6-3,23,23,0,0,1,10.18,2.19,18.67,18.67,0,0,1,7.27,6.14,19.78,19.78,0,0,1,3.38,9.09H514.4a11.4,11.4,0,0,0-3.82-6.39,10.91,10.91,0,0,0-7.17-2.35,12.06,12.06,0,0,0-6.9,2,12.65,12.65,0,0,0-4.51,5.53,20,20,0,0,0-1.57,8.12q0,7,3.45,11.34a11.54,11.54,0,0,0,9.53,4.3,13.19,13.19,0,0,0,7.85-2.42,10.1,10.1,0,0,0,4.1-7.14v-.61H503.48V460.2h21.37v26.57h-7.1l-1.09-5.94A16,16,0,0,1,511,485.4a18.31,18.31,0,0,1-8.27,1.78,23.24,23.24,0,0,1-11.91-3,20.37,20.37,0,0,1-8-8.54,30.05,30.05,0,0,1,0-25.57A20.32,20.32,0,0,1,491.08,441.56Z" transform="translate(-259.41 -423.51)"></path><path class="cls-1" d="M560.22,439v47.81H550V439Z" transform="translate(-259.41 -423.51)"></path><path class="cls-1" d="M620.52,439v8.81h-13.8v39H596.48v-39h-13.8V439Z" transform="translate(-259.41 -423.51)"></path><path class="cls-1" d="M656.71,439H669l17.34,47.81h-11l-3.69-10.45H653.5l-3.69,10.45H639.22Zm12.15,29.1-6.35-18.17-6.28,18.17Z" transform="translate(-259.41 -423.51)"></path><path class="cls-1" d="M707.65,439h10.24v39h19v8.81H707.65Z" transform="translate(-259.41 -423.51)"></path><path class="cls-1" d="M386.25,499.51v11.22l10-11.22h4.35l-8,9.07,8.58,12.68h-4.32L390,511.32l-3.79,4.25v5.69h-3.57V499.51Z" transform="translate(-259.41 -423.51)"></path><path class="cls-1" d="M432.12,520a11.23,11.23,0,0,1-11,0,10,10,0,0,1-3.75-3.95,12.82,12.82,0,0,1,0-11.37,9.91,9.91,0,0,1,3.75-3.95,11.23,11.23,0,0,1,11,0,9.88,9.88,0,0,1,3.74,3.95,12.73,12.73,0,0,1,0,11.37A10,10,0,0,1,432.12,520ZM423,517.3a6.89,6.89,0,0,0,7.18,0,6.76,6.76,0,0,0,2.44-2.83,10,10,0,0,0,0-8.17,6.64,6.64,0,0,0-2.44-2.83,6.89,6.89,0,0,0-7.18,0,6.69,6.69,0,0,0-2.43,2.83,10,10,0,0,0,0,8.17A6.81,6.81,0,0,0,423,517.3Z" transform="translate(-259.41 -423.51)"></path><path class="cls-1" d="M454.12,499.51h3.26L468,514.92V499.51h3.51v21.75h-3.26l-10.6-15.41v15.41h-3.51Z" transform="translate(-259.41 -423.51)"></path><path class="cls-1" d="M493.52,517.27a5.66,5.66,0,0,0,3.69,1.16,5.51,5.51,0,0,0,3.21-.85,2.73,2.73,0,0,0,1.23-2.38,2.24,2.24,0,0,0-.67-1.72,4.22,4.22,0,0,0-1.82-1,30.47,30.47,0,0,0-3.23-.72,18.07,18.07,0,0,1-3.62-1,5.66,5.66,0,0,1-2.45-1.85,5.16,5.16,0,0,1-.95-3.26,5.84,5.84,0,0,1,1-3.32,6.39,6.39,0,0,1,2.73-2.27,10.41,10.41,0,0,1,8.19.06,7.19,7.19,0,0,1,2.89,2.39,6.48,6.48,0,0,1,1.15,3.48h-3.51a3.85,3.85,0,0,0-1.46-2.7,5.75,5.75,0,0,0-6.26-.2,2.69,2.69,0,0,0-1.14,2.31,2.19,2.19,0,0,0,.67,1.68,4.11,4.11,0,0,0,1.79.93c.74.21,1.81.44,3.2.69a17.5,17.5,0,0,1,3.63,1,6.09,6.09,0,0,1,2.49,1.83,5,5,0,0,1,1,3.21,6,6,0,0,1-1,3.44,6.8,6.8,0,0,1-2.86,2.38,9.73,9.73,0,0,1-4.16.86,10.46,10.46,0,0,1-4.54-.93,7.38,7.38,0,0,1-3.06-2.6,6.89,6.89,0,0,1-1.14-3.81l3.51.07A4.32,4.32,0,0,0,493.52,517.27Z" transform="translate(-259.41 -423.51)"></path><path class="cls-1" d="M525.59,512.12a7.43,7.43,0,0,0,1.21,4.62,4.53,4.53,0,0,0,3.77,1.54,4.59,4.59,0,0,0,3.8-1.54,7.3,7.3,0,0,0,1.23-4.62V499.51h3.57v12.43c0,3.1-.73,5.47-2.19,7.08s-3.6,2.43-6.41,2.43-4.93-.81-6.38-2.43-2.17-4-2.17-7.08V499.51h3.57Z" transform="translate(-259.41 -423.51)"></path><path class="cls-1" d="M556.81,499.51h3.57v18.58h9.36v3.17H556.81Z" transform="translate(-259.41 -423.51)"></path><path class="cls-1" d="M602,499.51v3.17H595.3v18.58h-3.58V502.68H585v-3.17Z" transform="translate(-259.41 -423.51)"></path><path class="cls-1" d="M632.69,499.51v3.17H622.07v6h8.76v3.07h-8.76v6.31h11v3.17H618.49V499.51Z" transform="translate(-259.41 -423.51)"></path><path class="cls-1" d="M662.32,500.36a6.33,6.33,0,0,1,2.66,2.43,6.92,6.92,0,0,1,.95,3.65,6.48,6.48,0,0,1-1.15,3.82,6.19,6.19,0,0,1-3.08,2.33l4.6,8.67h-4l-4.13-7.89h-4.85v7.89h-3.57V499.51h8.58A8.76,8.76,0,0,1,662.32,500.36Zm-4.25,9.9a4.38,4.38,0,0,0,3.06-1,4,4,0,0,0,0-5.56,4.34,4.34,0,0,0-3.06-1.05h-4.73v7.65Z" transform="translate(-259.41 -423.51)"></path><path class="cls-1" d="M683,499.51h3.27l10.59,15.41V499.51h3.52v21.75h-3.27l-10.59-15.41v15.41H683Z" transform="translate(-259.41 -423.51)"></path><path class="cls-1" d="M724.51,499.51h4.25l8.11,21.75h-3.82l-2-5.38h-8.92l-2,5.38h-3.7Zm5.5,13.33-3.48-9.48-3.45,9.48Z" transform="translate(-259.41 -423.51)"></path><path class="cls-1" d="M347.87,453.24a53.48,53.48,0,0,0-18.81-20.4,51.52,51.52,0,0,0-17.68-7.32,95.86,95.86,0,0,0-13.95-2,5.25,5.25,0,0,0-5.57,4.8,5.21,5.21,0,0,0,4.87,5.51,89.75,89.75,0,0,1,9.59,1.28,45.26,45.26,0,0,1,17.9,7.25,42.7,42.7,0,0,1,14.21,16.32,46.41,46.41,0,0,1,5,21A52.14,52.14,0,0,1,339,500.61a44,44,0,0,1-5.52,9.14,38.32,38.32,0,0,1-7.7,7.4c-1.2.85-2.39,1.63-3.59,2.33l6.19,7.94.72-.45a54.89,54.89,0,0,0,18.66-20.09A59.69,59.69,0,0,0,352.78,494a53.72,53.72,0,0,0,1.81-13.9A56.67,56.67,0,0,0,347.87,453.24Z" transform="translate(-259.41 -423.51)"></path><path class="cls-1" d="M299.07,525.92q-4.76.3-9.75.3H269.83V456.51a5.21,5.21,0,0,0-5.21-5.21h0a5.21,5.21,0,0,0-5.21,5.21v79.83h32.93a83.09,83.09,0,0,0,9.22-.53,76.77,76.77,0,0,0,8.41-1.39l-6.83-8.89C301.8,525.7,300.44,525.83,299.07,525.92Z" transform="translate(-259.41 -423.51)"></path><path class="cls-1" d="M285.62,478.93l27.32-34.06c-2.88-1.66-9.68-2.72-11.85-2.44l-28.76,36.65,44.12,57.41H330.5Z" transform="translate(-259.41 -423.51)"></path></svg>