<svg width="170" height="25" viewBox="0 0 170 25" fill="none" xmlns="http://www.w3.org/2000/svg">
<path d="M6.47406 6.41526L1.82764 5.69509L1.95154 5.00494C1.95154 4.97493 2.32326 5.00494 2.75692 5.06495L5.82356 5.54506C6.25723 5.60507 6.62894 5.6951 6.59797 5.7251L6.47406 6.41526Z" fill="#FEE133"/>
<path d="M4.64643 17.8779L1.92052 19.8883L0 17.1577L1.79662 6.3252L6.44304 7.01535L4.64643 17.8779Z" fill="#FEE133"/>
<path d="M6.16411 1.22388L3.90285 0.8638C3.22138 0.773779 2.60185 1.2839 2.47795 2.03407L2.16819 3.86449C2.10624 4.16456 2.29209 4.43462 2.57088 4.49464L6.25704 5.06477C6.53583 5.09478 6.78364 4.88473 6.84559 4.58466L7.15535 2.72423C7.24828 2.00406 6.81461 1.3139 6.16411 1.22388Z" fill="#E5616D"/>
<path d="M19.639 2.0805C21.0233 2.0805 22.2025 2.30268 23.1767 2.74703C24.1509 3.19138 24.8943 3.83227 25.407 4.6697C25.9197 5.50713 26.1761 6.52401 26.1761 7.72033C26.1761 8.91666 25.9197 9.93354 25.407 10.771C24.8943 11.6084 24.1509 12.2493 23.1767 12.6936C22.2025 13.138 21.0233 13.3602 19.639 13.3602L16.2807 13.3602L16.2807 19L11.8714 19L11.8714 2.0805L19.639 2.0805ZM18.9468 10.0532C19.8697 10.0532 20.5619 9.86518 21.0233 9.48919C21.5018 9.09611 21.7411 8.50649 21.7411 7.72033C21.7411 6.93418 21.5018 6.3531 21.0233 5.97711C20.5619 5.58404 19.8697 5.3875 18.9468 5.3875L16.2807 5.3875L16.2807 10.0532L18.9468 10.0532ZM33.3885 19.2564C31.97 19.2564 30.7395 18.9915 29.697 18.4617C28.6715 17.9318 27.8768 17.1713 27.3128 16.1801C26.7489 15.1888 26.4669 13.9925 26.4669 12.5911C26.4669 11.1897 26.7489 9.99336 27.3128 9.00212C27.8768 8.01087 28.663 7.25035 29.6713 6.72055C30.6967 6.19074 31.8674 5.92584 33.1834 5.92584C34.5335 5.92584 35.6786 6.19074 36.6186 6.72055C37.5756 7.23326 38.302 7.95106 38.7976 8.87394C39.2932 9.77973 39.541 10.8222 39.541 12.0015C39.541 12.3091 39.5325 12.6167 39.5154 12.9244C39.4983 13.232 39.4727 13.4883 39.4385 13.6934L29.2868 13.6934L29.2868 11.3606L37.5158 11.3606L35.4393 12.1553C35.4393 11.1299 35.2513 10.3437 34.8753 9.79682C34.5164 9.24993 33.9525 8.97648 33.1834 8.97648C32.6365 8.97648 32.1665 9.10466 31.7734 9.36101C31.3974 9.61737 31.1069 10.019 30.9018 10.5659C30.7138 11.1128 30.6198 11.8135 30.6198 12.668C30.6198 13.5054 30.7309 14.1891 30.9531 14.7189C31.1753 15.2316 31.4914 15.6076 31.9016 15.8468C32.3118 16.069 32.8074 16.1801 33.3885 16.1801C34.0379 16.1801 34.5506 16.0519 34.9266 15.7955C35.3197 15.5392 35.6102 15.1803 35.7982 14.7189L39.2847 15.8725C39.0454 16.6073 38.6267 17.2311 38.0285 17.7439C37.4475 18.2395 36.7467 18.6155 35.9264 18.8718C35.1232 19.1282 34.2772 19.2564 33.3885 19.2564ZM40.8254 19L40.8254 6.1822L44.722 6.1822L44.9527 10.5915L44.4657 10.1044C44.6366 9.18156 44.9357 8.4125 45.3629 7.79724C45.8073 7.18199 46.3542 6.72055 47.0036 6.41292C47.6701 6.0882 48.4135 5.92584 49.2339 5.92584C50.1226 5.92584 50.8917 6.09675 51.5411 6.43856C52.2076 6.78036 52.7289 7.28453 53.1049 7.95106C53.4809 8.61758 53.6688 9.45501 53.6688 10.4633L53.6688 19L49.3108 19L49.3108 11.6169C49.3108 10.7282 49.1399 10.113 48.7981 9.77118C48.4563 9.42938 48.0205 9.25847 47.4907 9.25847C47.0805 9.25847 46.696 9.36101 46.3371 9.5661C45.9782 9.75409 45.6962 10.0617 45.4911 10.489C45.286 10.9162 45.1835 11.4888 45.1835 12.2066L45.1835 19L40.8254 19ZM61.6445 5.92584C62.9434 5.92584 64.0201 6.11384 64.8746 6.48983C65.7462 6.84872 66.4213 7.3358 66.8998 7.95106C67.3954 8.54922 67.7031 9.19865 67.8227 9.89936L63.7979 11.2324C63.6783 10.4975 63.4561 9.95063 63.1314 9.59173C62.8238 9.21575 62.3709 9.02775 61.7727 9.02775C61.2258 9.02775 60.7644 9.15593 60.3884 9.41228C60.0295 9.65155 59.756 10.0446 59.568 10.5915C59.38 11.1213 59.286 11.8049 59.286 12.6424C59.286 13.4798 59.3886 14.1634 59.5937 14.6932C59.7988 15.2059 60.0893 15.5819 60.4653 15.8212C60.8413 16.0434 61.2856 16.1544 61.7983 16.1544C62.2256 16.1544 62.5759 16.0775 62.8494 15.9237C63.1399 15.7528 63.3792 15.5136 63.5672 15.2059C63.7552 14.8983 63.8748 14.5223 63.9261 14.078L67.8483 15.3341C67.7287 16.0861 67.404 16.7612 66.8742 17.3593C66.3615 17.9404 65.6779 18.4018 64.8233 18.7436C63.9688 19.0855 62.969 19.2564 61.824 19.2564C60.4226 19.2564 59.2006 19 58.1581 18.4873C57.1156 17.9575 56.3123 17.197 55.7483 16.2057C55.1843 15.1974 54.9024 13.9925 54.9024 12.5911C54.9024 11.1897 55.1843 9.99336 55.7483 9.00212C56.3123 7.99378 57.0985 7.23326 58.1068 6.72055C59.1322 6.19074 60.3115 5.92584 61.6445 5.92584ZM71.1395 4.69533C70.2508 4.69533 69.6014 4.53298 69.1912 4.20826C68.7981 3.86645 68.6016 3.33665 68.6016 2.61885C68.6016 1.88396 68.7981 1.35416 69.1912 1.02944C69.6014 0.687635 70.2508 0.516731 71.1395 0.516731C72.0111 0.516731 72.652 0.687635 73.0622 1.02944C73.4723 1.35416 73.6774 1.88396 73.6774 2.61885C73.6774 3.33665 73.4723 3.86645 73.0622 4.20826C72.652 4.53298 72.0111 4.69533 71.1395 4.69533ZM73.3185 6.1822L73.3185 19L68.9605 19L68.9605 6.1822L73.3185 6.1822ZM79.574 0.747452L79.574 14.6419C79.574 15.2059 79.668 15.6076 79.856 15.8468C80.044 16.0861 80.3602 16.2057 80.8045 16.2057C81.0609 16.2057 81.2745 16.1886 81.4454 16.1544C81.6163 16.1203 81.8214 16.069 82.0607 16.0006L81.7787 18.6155C81.4711 18.8035 81.0694 18.9573 80.5738 19.0769C80.0782 19.1965 79.5911 19.2564 79.1126 19.2564C77.7453 19.2564 76.7541 18.9402 76.1389 18.3078C75.5236 17.6755 75.216 16.6415 75.216 15.2059L75.216 0.747452L79.574 0.747452Z" fill="#2F80ED"/>
<path d="M94.2803 1.82415C95.8013 1.82415 97.1173 2.11468 98.2282 2.69576C99.3391 3.25974 100.279 4.09717 101.048 5.20805L99.2023 6.9769C98.5529 5.98566 97.818 5.27641 96.9977 4.84915C96.1944 4.4048 95.2374 4.18262 94.1265 4.18262C93.3061 4.18262 92.6311 4.29371 92.1013 4.51589C91.5715 4.73806 91.1784 5.03714 90.922 5.41313C90.6828 5.77203 90.5631 6.1822 90.5631 6.64364C90.5631 7.17344 90.7426 7.63488 91.1015 8.02796C91.4775 8.42104 92.1696 8.72867 93.178 8.95084L96.6131 9.71991C98.2538 10.0788 99.416 10.6257 100.1 11.3606C100.783 12.0955 101.125 13.0269 101.125 14.1549C101.125 15.1974 100.843 16.1032 100.279 16.8722C99.715 17.6413 98.9289 18.2309 97.9206 18.6411C96.9293 19.0513 95.7586 19.2564 94.4085 19.2564C93.2121 19.2564 92.1355 19.1025 91.1784 18.7949C90.2213 18.4873 89.3839 18.0686 88.6661 17.5388C87.9483 17.009 87.3587 16.4023 86.8972 15.7186L88.7943 13.8216C89.1532 14.4198 89.6061 14.9581 90.153 15.4367C90.6999 15.8981 91.3322 16.257 92.05 16.5133C92.7849 16.7697 93.5967 16.8979 94.4854 16.8979C95.2715 16.8979 95.9466 16.8039 96.5106 16.6159C97.0917 16.4279 97.5275 16.1544 97.818 15.7955C98.1256 15.4196 98.2795 14.9752 98.2795 14.4625C98.2795 13.9669 98.1085 13.5311 97.7667 13.1551C97.442 12.7791 96.8268 12.4886 95.921 12.2835L92.2038 11.4375C91.1784 11.2153 90.3324 10.8991 89.6659 10.489C88.9994 10.0788 88.5037 9.58319 88.179 9.00212C87.8543 8.40395 87.6919 7.73743 87.6919 7.00254C87.6919 6.04548 87.9483 5.18241 88.461 4.41334C88.9908 3.62718 89.7513 3.00338 90.7426 2.54194C91.7338 2.06341 92.9131 1.82415 94.2803 1.82415ZM103.322 24.3835L103.322 6.1822L105.757 6.1822L105.962 9.77118L105.603 9.33538C105.809 8.66885 106.125 8.07923 106.552 7.56652C106.979 7.05381 107.509 6.65219 108.141 6.36165C108.791 6.07111 109.5 5.92584 110.269 5.92584C111.312 5.92584 112.26 6.19074 113.115 6.72055C113.969 7.25035 114.644 8.01087 115.14 9.00212C115.635 9.97627 115.883 11.1641 115.883 12.5655C115.883 13.9669 115.627 15.1717 115.114 16.1801C114.619 17.1713 113.935 17.9318 113.063 18.4617C112.209 18.9915 111.252 19.2564 110.192 19.2564C109.098 19.2564 108.167 18.9744 107.398 18.4104C106.629 17.8293 106.082 17.0944 105.757 16.2057L106.065 15.7699L106.065 24.3835L103.322 24.3835ZM109.603 17.0261C110.713 17.0261 111.577 16.633 112.192 15.8468C112.824 15.0607 113.14 13.9754 113.14 12.5911C113.14 11.2068 112.833 10.1215 112.217 9.33538C111.602 8.53213 110.748 8.1305 109.654 8.1305C108.936 8.1305 108.304 8.3185 107.757 8.69449C107.227 9.05339 106.808 9.5661 106.501 10.2326C106.21 10.8821 106.065 11.6682 106.065 12.5911C106.065 13.4969 106.21 14.283 106.501 14.9496C106.791 15.6161 107.201 16.1288 107.731 16.4877C108.261 16.8466 108.885 17.0261 109.603 17.0261ZM125.624 10.771C125.624 9.91645 125.385 9.25847 124.906 8.79703C124.445 8.3185 123.804 8.07923 122.984 8.07923C122.215 8.07923 121.557 8.25868 121.01 8.61758C120.463 8.97648 120.061 9.55755 119.805 10.3608L117.498 9.38665C117.822 8.34413 118.455 7.50671 119.395 6.87436C120.352 6.24201 121.582 5.92584 123.086 5.92584C124.112 5.92584 125.018 6.09675 125.804 6.43856C126.59 6.76327 127.205 7.25889 127.649 7.92542C128.111 8.59195 128.342 9.44647 128.342 10.489V16.2057C128.342 16.8381 128.658 17.1542 129.29 17.1542C129.598 17.1542 129.897 17.1115 130.187 17.0261L130.034 18.9231C129.64 19.1111 129.145 19.2051 128.547 19.2051C128 19.2051 127.504 19.1111 127.06 18.9231C126.633 18.718 126.291 18.4189 126.034 18.0258C125.795 17.6157 125.675 17.1115 125.675 16.5133V16.3339L126.239 16.3083C126.086 16.9748 125.769 17.5302 125.291 17.9746C124.812 18.4018 124.257 18.7266 123.625 18.9487C122.992 19.1538 122.351 19.2564 121.702 19.2564C120.899 19.2564 120.172 19.1282 119.523 18.8718C118.891 18.6155 118.386 18.2309 118.01 17.7182C117.652 17.1884 117.472 16.539 117.472 15.7699C117.472 14.8129 117.78 14.0267 118.395 13.4114C119.027 12.7962 119.916 12.3775 121.061 12.1553L126.034 11.1811L126.009 13.1038L122.394 13.8472C121.676 13.984 121.138 14.1805 120.779 14.4369C120.42 14.6932 120.241 15.0692 120.241 15.5648C120.241 16.0434 120.42 16.4279 120.779 16.7184C121.155 16.9919 121.651 17.1286 122.266 17.1286C122.693 17.1286 123.103 17.0773 123.496 16.9748C123.907 16.8722 124.274 16.7099 124.599 16.4877C124.924 16.2484 125.171 15.9494 125.342 15.5905C125.53 15.2145 125.624 14.7701 125.624 14.2574V10.771ZM137.194 5.92584C138.22 5.92584 139.092 6.07966 139.809 6.38728C140.544 6.67782 141.159 7.09654 141.655 7.64343C142.151 8.19032 142.527 8.81412 142.783 9.51483L140.194 10.5403C139.972 9.75409 139.613 9.15593 139.117 8.74576C138.639 8.3185 138.006 8.10487 137.22 8.10487C136.451 8.10487 135.793 8.28432 135.246 8.64322C134.699 8.98503 134.281 9.48919 133.99 10.1557C133.717 10.8222 133.58 11.6426 133.58 12.6167C133.58 13.5738 133.725 14.3856 134.016 15.0521C134.306 15.7186 134.725 16.2228 135.272 16.5646C135.819 16.9064 136.468 17.0773 137.22 17.0773C137.801 17.0773 138.305 16.9833 138.733 16.7953C139.16 16.5903 139.51 16.3083 139.784 15.9494C140.074 15.5734 140.271 15.1205 140.373 14.5907L142.86 15.4367C142.621 16.2057 142.245 16.8808 141.732 17.4619C141.236 18.0258 140.613 18.4702 139.861 18.7949C139.109 19.1025 138.246 19.2564 137.271 19.2564C136.007 19.2564 134.887 18.9915 133.913 18.4617C132.939 17.9318 132.178 17.1713 131.632 16.1801C131.102 15.1717 130.837 13.9754 130.837 12.5911C130.837 11.2068 131.102 10.019 131.632 9.02775C132.178 8.01942 132.93 7.25035 133.888 6.72055C134.862 6.19074 135.964 5.92584 137.194 5.92584ZM150.538 19.2564C149.257 19.2564 148.129 18.9915 147.155 18.4617C146.18 17.9318 145.42 17.1713 144.873 16.1801C144.343 15.1717 144.078 13.9754 144.078 12.5911C144.078 11.2068 144.343 10.019 144.873 9.02775C145.42 8.01942 146.172 7.25035 147.129 6.72055C148.086 6.19074 149.171 5.92584 150.385 5.92584C151.632 5.92584 152.692 6.1822 153.563 6.69491C154.435 7.20762 155.102 7.90833 155.563 8.79703C156.024 9.68573 156.255 10.6941 156.255 11.822C156.255 12.1297 156.247 12.4202 156.23 12.6936C156.212 12.9671 156.187 13.2064 156.153 13.4114L145.847 13.4114V11.3093L154.948 11.3093L153.589 11.7195C153.589 10.5573 153.299 9.66864 152.717 9.05339C152.136 8.42104 151.342 8.10487 150.333 8.10487C149.598 8.10487 148.958 8.27577 148.411 8.61758C147.864 8.95939 147.445 9.4721 147.155 10.1557C146.864 10.8222 146.719 11.6426 146.719 12.6167C146.719 13.5738 146.873 14.3856 147.18 15.0521C147.488 15.7186 147.924 16.2228 148.488 16.5646C149.052 16.9064 149.718 17.0773 150.487 17.0773C151.342 17.0773 152.034 16.915 152.564 16.5903C153.093 16.2655 153.512 15.8126 153.82 15.2316L155.999 16.257C155.691 16.8722 155.272 17.4106 154.743 17.872C154.23 18.3164 153.615 18.6582 152.897 18.8975C152.179 19.1367 151.393 19.2564 150.538 19.2564ZM163.436 19.2564C162.155 19.2564 160.984 19.0085 159.924 18.5129C158.865 18.0173 158.027 17.3166 157.412 16.4108L159.309 14.7701C159.685 15.4708 160.223 16.0348 160.924 16.4621C161.642 16.8722 162.496 17.0773 163.488 17.0773C164.274 17.0773 164.898 16.9406 165.359 16.6672C165.82 16.3937 166.051 16.0092 166.051 15.5136C166.051 15.1888 165.94 14.9068 165.718 14.6676C165.513 14.4112 165.111 14.2147 164.513 14.078L161.821 13.514C160.454 13.2405 159.48 12.8047 158.899 12.2066C158.318 11.5913 158.027 10.8137 158.027 9.87373C158.027 9.17302 158.232 8.52358 158.642 7.92542C159.053 7.32726 159.651 6.84872 160.437 6.48983C161.24 6.11384 162.197 5.92584 163.308 5.92584C164.59 5.92584 165.684 6.15656 166.59 6.618C167.495 7.06235 168.187 7.70324 168.666 8.54067L166.769 10.1301C166.444 9.44647 165.966 8.9423 165.333 8.61758C164.701 8.27577 164.043 8.10487 163.359 8.10487C162.813 8.10487 162.343 8.17323 161.949 8.30995C161.556 8.44668 161.257 8.63467 161.052 8.87394C160.847 9.1132 160.745 9.39519 160.745 9.71991C160.745 10.0617 160.873 10.3608 161.129 10.6172C161.385 10.8735 161.847 11.0701 162.513 11.2068L165.436 11.822C166.666 12.0613 167.529 12.4715 168.025 13.0525C168.538 13.6165 168.794 14.3087 168.794 15.129C168.794 15.9494 168.581 16.6757 168.153 17.3081C167.726 17.9233 167.111 18.4018 166.308 18.7436C165.504 19.0855 164.547 19.2564 163.436 19.2564Z" fill="#2F80ED"/>
</svg>
